<?xml version="1.0" standalone="no"?>
<!DOCTYPE svg PUBLIC "-//W3C//DTD SVG 20010904//EN"
 "http://www.w3.org/TR/2001/REC-SVG-20010904/DTD/svg10.dtd">
<svg version="1.0" xmlns="http://www.w3.org/2000/svg"
 width="346.000000pt" height="346.000000pt" viewBox="0 0 346.000000 346.000000"
 preserveAspectRatio="xMidYMid meet">
<metadata>
Created by potrace 1.14, written by Peter Selinger 2001-2017
</metadata>
<g transform="translate(0.000000,346.000000) scale(0.100000,-0.100000)"
fill="#000000" stroke="none">
<path d="M363 3126 c-176 -43 -315 -187 -352 -364 -15 -74 -15 -2000 0 -2074
38 -182 185 -329 367 -367 75 -16 2629 -16 2704 0 182 38 329 185 367 367 15
74 15 2000 0 2074 -38 182 -185 329 -367 367 -80 17 -2649 14 -2719 -3z m2713
-322 c15 -11 37 -33 48 -48 21 -27 21 -33 21 -1031 0 -998 0 -1004 -21 -1031
-11 -15 -33 -37 -48 -48 -27 -21 -30 -21 -1346 -21 -1316 0 -1319 0 -1346 21
-15 11 -37 33 -48 48 -21 27 -21 36 -24 1004 -1 537 0 991 3 1009 7 40 49 91
90 109 25 11 266 13 1337 11 1302 -2 1307 -2 1334 -23z"/>
<path d="M725 2496 c-102 -44 -124 -181 -41 -254 140 -123 338 67 219 209 -47
55 -116 72 -178 45z"/>
<path d="M2615 2496 c-102 -44 -124 -181 -41 -254 140 -123 338 67 219 209
-47 55 -116 72 -178 45z"/>
<path d="M725 1866 c-102 -44 -124 -181 -41 -254 140 -123 338 67 219 209 -47
55 -116 72 -178 45z"/>
<path d="M2615 1866 c-102 -44 -124 -181 -41 -254 140 -123 338 67 219 209
-47 55 -116 72 -178 45z"/>
<path d="M725 1236 c-102 -44 -124 -181 -41 -254 140 -123 338 67 219 209 -47
55 -116 72 -178 45z"/>
<path d="M2615 1236 c-102 -44 -124 -181 -41 -254 140 -123 338 67 219 209
-47 55 -116 72 -178 45z"/>
</g>
</svg>
